<svg width="187.099mm" height="270.27mm" viewBox="0 0 187.099 270.27" xmlns="http://www.w3.org/2000/svg"><g id="svgGroup" stroke-linecap="round" fill-rule="evenodd" font-size="9pt" stroke="#000" stroke-width="0.25mm" fill="none" style="stroke:#000;stroke-width:0.25mm;fill:none"><g id="0"><line id="s_0" data-route="[&quot;paths&quot;,&quot;s_0&quot;]" x1="24.519" y1="270.27" x2="182.435" y2="258.082" vector-effect="non-scaling-stroke"/><line id="s_1" data-route="[&quot;paths&quot;,&quot;s_1&quot;]" x1="25.502" y1="263.378" x2="183.424" y2="251.184" vector-effect="non-scaling-stroke"/><line id="s_2" data-route="[&quot;paths&quot;,&quot;s_2&quot;]" x1="24.673" y1="258.645" x2="187.099" y2="241.084" vector-effect="non-scaling-stroke"/><line id="s_3" data-route="[&quot;paths&quot;,&quot;s_3&quot;]" x1="21.821" y1="256.324" x2="180.753" y2="242.926" vector-effect="non-scaling-stroke"/><line id="s_4" data-route="[&quot;paths&quot;,&quot;s_4&quot;]" x1="21.538" y1="250.941" x2="180.608" y2="237.379" vector-effect="non-scaling-stroke"/><line id="s_5" data-route="[&quot;paths&quot;,&quot;s_5&quot;]" x1="25.718" y1="240.239" x2="184.15" y2="227.438" vector-effect="non-scaling-stroke"/><line id="s_6" data-route="[&quot;paths&quot;,&quot;s_6&quot;]" x1="20.005" y1="241.327" x2="178.98" y2="227.878" vector-effect="non-scaling-stroke"/><line id="s_7" data-route="[&quot;paths&quot;,&quot;s_7&quot;]" x1="19.132" y1="236.647" x2="178.514" y2="222.713" vector-effect="non-scaling-stroke"/><line id="s_8" data-route="[&quot;paths&quot;,&quot;s_8&quot;]" x1="21.566" y1="228.026" x2="180.036" y2="215.179" vector-effect="non-scaling-stroke"/><line id="s_9" data-route="[&quot;paths&quot;,&quot;s_9&quot;]" x1="22.801" y1="220.834" x2="178.729" y2="211.017" vector-effect="non-scaling-stroke"/><line id="s_10" data-route="[&quot;paths&quot;,&quot;s_10&quot;]" x1="19.922" y1="218.545" x2="179.655" y2="204.192" vector-effect="non-scaling-stroke"/><line id="s_11" data-route="[&quot;paths&quot;,&quot;s_11&quot;]" x1="17.91" y1="215.222" x2="181.982" y2="195.699" vector-effect="non-scaling-stroke"/><line id="s_12" data-route="[&quot;paths&quot;,&quot;s_12&quot;]" x1="18.875" y1="208.352" x2="175.573" y2="197.617" vector-effect="non-scaling-stroke"/><line id="s_13" data-route="[&quot;paths&quot;,&quot;s_13&quot;]" x1="19.202" y1="202.241" x2="180.925" y2="185.518" vector-effect="non-scaling-stroke"/><line id="s_14" data-route="[&quot;paths&quot;,&quot;s_14&quot;]" x1="15.17" y1="201.327" x2="177.939" y2="183.356" vector-effect="non-scaling-stroke"/><line id="s_15" data-route="[&quot;paths&quot;,&quot;s_15&quot;]" x1="20.544" y1="189.202" x2="174.256" y2="182.025" vector-effect="non-scaling-stroke"/><line id="s_16" data-route="[&quot;paths&quot;,&quot;s_16&quot;]" x1="14.17" y1="191.077" x2="177.621" y2="172.294" vector-effect="non-scaling-stroke"/><line id="s_17" data-route="[&quot;paths&quot;,&quot;s_17&quot;]" x1="16.973" y1="182.017" x2="175.956" y2="168.559" vector-effect="non-scaling-stroke"/><line id="s_18" data-route="[&quot;paths&quot;,&quot;s_18&quot;]" x1="15.394" y1="178.178" x2="174.374" y2="164.723" vector-effect="non-scaling-stroke"/><line id="s_19" data-route="[&quot;paths&quot;,&quot;s_19&quot;]" x1="17.071" y1="170.46" x2="176.294" y2="156.715" vector-effect="non-scaling-stroke"/><line id="s_20" data-route="[&quot;paths&quot;,&quot;s_20&quot;]" x1="13.642" y1="168.826" x2="177.8" y2="149.2" vector-effect="non-scaling-stroke"/><line id="s_21" data-route="[&quot;paths&quot;,&quot;s_21&quot;]" x1="15.954" y1="160.35" x2="172.028" y2="150.358" vector-effect="non-scaling-stroke"/><line id="s_22" data-route="[&quot;paths&quot;,&quot;s_22&quot;]" x1="15.731" y1="154.896" x2="176.26" y2="139.595" vector-effect="non-scaling-stroke"/><line id="s_23" data-route="[&quot;paths&quot;,&quot;s_23&quot;]" x1="14.436" y1="150.718" x2="175.707" y2="134.533" vector-effect="non-scaling-stroke"/><line id="s_24" data-route="[&quot;paths&quot;,&quot;s_24&quot;]" x1="16.43" y1="142.621" x2="175.044" y2="129.603" vector-effect="non-scaling-stroke"/><line id="s_25" data-route="[&quot;paths&quot;,&quot;s_25&quot;]" x1="15.169" y1="138.404" x2="175.266" y2="123.618" vector-effect="non-scaling-stroke"/><line id="s_26" data-route="[&quot;paths&quot;,&quot;s_26&quot;]" x1="12.437" y1="135.939" x2="169.951" y2="124.232" vector-effect="non-scaling-stroke"/><line id="s_27" data-route="[&quot;paths&quot;,&quot;s_27&quot;]" x1="9.12" y1="134.172" x2="172.463" y2="115.518" vector-effect="non-scaling-stroke"/><line id="s_28" data-route="[&quot;paths&quot;,&quot;s_28&quot;]" x1="12.969" y1="123.865" x2="173.503" y2="108.558" vector-effect="non-scaling-stroke"/><line id="s_29" data-route="[&quot;paths&quot;,&quot;s_29&quot;]" x1="8.882" y1="123.016" x2="169.517" y2="107.588" vector-effect="non-scaling-stroke"/><line id="s_30" data-route="[&quot;paths&quot;,&quot;s_30&quot;]" x1="9.591" y1="116.451" x2="172.929" y2="97.802" vector-effect="non-scaling-stroke"/><line id="s_31" data-route="[&quot;paths&quot;,&quot;s_31&quot;]" x1="9.617" y1="110.699" x2="167.278" y2="98.815" vector-effect="non-scaling-stroke"/><line id="s_32" data-route="[&quot;paths&quot;,&quot;s_32&quot;]" x1="9.064" y1="105.638" x2="171.745" y2="87.772" vector-effect="non-scaling-stroke"/><line id="s_33" data-route="[&quot;paths&quot;,&quot;s_33&quot;]" x1="12.721" y1="95.559" x2="166.109" y2="88.768" vector-effect="non-scaling-stroke"/><line id="s_34" data-route="[&quot;paths&quot;,&quot;s_34&quot;]" x1="9.488" y1="93.691" x2="167.636" y2="81.228" vector-effect="non-scaling-stroke"/><line id="s_35" data-route="[&quot;paths&quot;,&quot;s_35&quot;]" x1="5.807" y1="92.359" x2="169.029" y2="73.848" vector-effect="non-scaling-stroke"/><line id="s_36" data-route="[&quot;paths&quot;,&quot;s_36&quot;]" x1="7.808" y1="84.253" x2="166.42" y2="71.237" vector-effect="non-scaling-stroke"/><line id="s_37" data-route="[&quot;paths&quot;,&quot;s_37&quot;]" x1="7.416" y1="79" x2="165.435" y2="66.69" vector-effect="non-scaling-stroke"/><line id="s_38" data-route="[&quot;paths&quot;,&quot;s_38&quot;]" x1="9.975" y1="70.23" x2="170.431" y2="55.015" vector-effect="non-scaling-stroke"/><line id="s_39" data-route="[&quot;paths&quot;,&quot;s_39&quot;]" x1="9.021" y1="65.646" x2="164.709" y2="56.115" vector-effect="non-scaling-stroke"/><line id="s_40" data-route="[&quot;paths&quot;,&quot;s_40&quot;]" x1="8.223" y1="60.878" x2="168.835" y2="45.478" vector-effect="non-scaling-stroke"/><line id="s_41" data-route="[&quot;paths&quot;,&quot;s_41&quot;]" x1="8.257" y1="55.117" x2="168.37" y2="40.311" vector-effect="non-scaling-stroke"/><line id="s_42" data-route="[&quot;paths&quot;,&quot;s_42&quot;]" x1="7.716" y1="50.041" x2="167.721" y2="35.364" vector-effect="non-scaling-stroke"/><line id="s_43" data-route="[&quot;paths&quot;,&quot;s_43&quot;]" x1="3.86" y1="48.915" x2="161.672" y2="36.853" vector-effect="non-scaling-stroke"/><line id="s_44" data-route="[&quot;paths&quot;,&quot;s_44&quot;]" x1="6.878" y1="39.599" x2="161.434" y2="31.416" vector-effect="non-scaling-stroke"/><line id="s_45" data-route="[&quot;paths&quot;,&quot;s_45&quot;]" x1="1.46" y1="40.335" x2="162.616" y2="24.287" vector-effect="non-scaling-stroke"/><line id="s_46" data-route="[&quot;paths&quot;,&quot;s_46&quot;]" x1="4.565" y1="30.914" x2="163.006" y2="18.103" vector-effect="non-scaling-stroke"/><line id="s_47" data-route="[&quot;paths&quot;,&quot;s_47&quot;]" x1="0" y1="30.635" x2="159.03" y2="17.12" vector-effect="non-scaling-stroke"/><line id="s_48" data-route="[&quot;paths&quot;,&quot;s_48&quot;]" x1="1.167" y1="23.524" x2="162.863" y2="6.832" vector-effect="non-scaling-stroke"/><line id="s_49" data-route="[&quot;paths&quot;,&quot;s_49&quot;]" x1="4.219" y1="14.166" x2="159.753" y2="4.818" vector-effect="non-scaling-stroke"/><line id="s_50" data-route="[&quot;paths&quot;,&quot;s_50&quot;]" x1="2.085" y1="10.99" x2="158.996" y2="0" vector-effect="non-scaling-stroke"/></g></g></svg>