<svg width="185.806mm" height="275.58mm" viewBox="0 0 185.806 275.58" xmlns="http://www.w3.org/2000/svg"><g id="svgGroup" stroke-linecap="round" fill-rule="evenodd" font-size="9pt" stroke="#000" stroke-width="0.25mm" fill="none" style="stroke:#000;stroke-width:0.25mm;fill:none"><g id="0"><line id="s_0" data-route="[&quot;paths&quot;,&quot;s_0&quot;]" x1="23.486" y1="275.58" x2="182.877" y2="261.635" vector-effect="non-scaling-stroke"/><line id="s_1" data-route="[&quot;paths&quot;,&quot;s_1&quot;]" x1="23.297" y1="273.422" x2="184.738" y2="257.034" vector-effect="non-scaling-stroke"/><line id="s_2" data-route="[&quot;paths&quot;,&quot;s_2&quot;]" x1="23.091" y1="271.284" x2="185.806" y2="253.378" vector-effect="non-scaling-stroke"/><line id="s_3" data-route="[&quot;paths&quot;,&quot;s_3&quot;]" x1="22.725" y1="269.337" x2="185.696" y2="251.125" vector-effect="non-scaling-stroke"/><line id="s_4" data-route="[&quot;paths&quot;,&quot;s_4&quot;]" x1="22.046" y1="267.762" x2="184.777" y2="249.838" vector-effect="non-scaling-stroke"/><line id="s_5" data-route="[&quot;paths&quot;,&quot;s_5&quot;]" x1="21.062" y1="266.552" x2="183.47" y2="249.011" vector-effect="non-scaling-stroke"/><line id="s_6" data-route="[&quot;paths&quot;,&quot;s_6&quot;]" x1="20.03" y1="265.398" x2="181.956" y2="248.432" vector-effect="non-scaling-stroke"/><line id="s_7" data-route="[&quot;paths&quot;,&quot;s_7&quot;]" x1="19.337" y1="263.84" x2="180.102" y2="248.259" vector-effect="non-scaling-stroke"/><line id="s_8" data-route="[&quot;paths&quot;,&quot;s_8&quot;]" x1="19.27" y1="261.537" x2="178.169" y2="248.178" vector-effect="non-scaling-stroke"/><line id="s_9" data-route="[&quot;paths&quot;,&quot;s_9&quot;]" x1="19.938" y1="258.357" x2="177.126" y2="247.038" vector-effect="non-scaling-stroke"/><line id="s_10" data-route="[&quot;paths&quot;,&quot;s_10&quot;]" x1="20.95" y1="254.768" x2="177.653" y2="244.026" vector-effect="non-scaling-stroke"/><line id="s_11" data-route="[&quot;paths&quot;,&quot;s_11&quot;]" x1="21.389" y1="251.861" x2="179.533" y2="239.403" vector-effect="non-scaling-stroke"/><line id="s_12" data-route="[&quot;paths&quot;,&quot;s_12&quot;]" x1="20.689" y1="250.312" x2="181.628" y2="234.522" vector-effect="non-scaling-stroke"/><line id="s_13" data-route="[&quot;paths&quot;,&quot;s_13&quot;]" x1="19.409" y1="249.454" x2="182.573" y2="231.013" vector-effect="non-scaling-stroke"/><line id="s_14" data-route="[&quot;paths&quot;,&quot;s_14&quot;]" x1="18.614" y1="248.017" x2="182.084" y2="229.212" vector-effect="non-scaling-stroke"/><line id="s_15" data-route="[&quot;paths&quot;,&quot;s_15&quot;]" x1="19.004" y1="245.169" x2="180.928" y2="228.205" vector-effect="non-scaling-stroke"/><line id="s_16" data-route="[&quot;paths&quot;,&quot;s_16&quot;]" x1="20.535" y1="240.961" x2="180.026" y2="226.897" vector-effect="non-scaling-stroke"/><line id="s_17" data-route="[&quot;paths&quot;,&quot;s_17&quot;]" x1="22.051" y1="236.771" x2="179.752" y2="224.841" vector-effect="non-scaling-stroke"/><line id="s_18" data-route="[&quot;paths&quot;,&quot;s_18&quot;]" x1="22.383" y1="233.992" x2="179.51" y2="222.746" vector-effect="non-scaling-stroke"/><line id="s_19" data-route="[&quot;paths&quot;,&quot;s_19&quot;]" x1="21.355" y1="232.834" x2="178.482" y2="221.587" vector-effect="non-scaling-stroke"/><line id="s_20" data-route="[&quot;paths&quot;,&quot;s_20&quot;]" x1="19.514" y1="232.644" x2="176.716" y2="221.308" vector-effect="non-scaling-stroke"/><line id="s_21" data-route="[&quot;paths&quot;,&quot;s_21&quot;]" x1="17.783" y1="232.323" x2="175.164" y2="220.775" vector-effect="non-scaling-stroke"/><line id="s_22" data-route="[&quot;paths&quot;,&quot;s_22&quot;]" x1="16.804" y1="231.107" x2="174.759" y2="218.874" vector-effect="non-scaling-stroke"/><line id="s_23" data-route="[&quot;paths&quot;,&quot;s_23&quot;]" x1="16.366" y1="229.246" x2="176.115" y2="214.874" vector-effect="non-scaling-stroke"/><line id="s_24" data-route="[&quot;paths&quot;,&quot;s_24&quot;]" x1="16.23" y1="227.024" x2="178.62" y2="209.505" vector-effect="non-scaling-stroke"/><line id="s_25" data-route="[&quot;paths&quot;,&quot;s_25&quot;]" x1="16.461" y1="224.365" x2="180.47" y2="204.917" vector-effect="non-scaling-stroke"/><line id="s_26" data-route="[&quot;paths&quot;,&quot;s_26&quot;]" x1="17.385" y1="220.881" x2="180.364" y2="202.66" vector-effect="non-scaling-stroke"/><line id="s_27" data-route="[&quot;paths&quot;,&quot;s_27&quot;]" x1="19.126" y1="216.422" x2="178.64" y2="202.332" vector-effect="non-scaling-stroke"/><line id="s_28" data-route="[&quot;paths&quot;,&quot;s_28&quot;]" x1="20.858" y1="211.974" x2="176.349" y2="202.678" vector-effect="non-scaling-stroke"/><line id="s_29" data-route="[&quot;paths&quot;,&quot;s_29&quot;]" x1="21.564" y1="208.75" x2="174.611" y2="202.365" vector-effect="non-scaling-stroke"/><line id="s_30" data-route="[&quot;paths&quot;,&quot;s_30&quot;]" x1="20.813" y1="207.262" x2="174.256" y2="200.406" vector-effect="non-scaling-stroke"/><line id="s_31" data-route="[&quot;paths&quot;,&quot;s_31&quot;]" x1="19.151" y1="206.858" x2="175.216" y2="196.877" vector-effect="non-scaling-stroke"/><line id="s_32" data-route="[&quot;paths&quot;,&quot;s_32&quot;]" x1="17.957" y1="205.898" x2="176.26" y2="193.25" vector-effect="non-scaling-stroke"/><line id="s_33" data-route="[&quot;paths&quot;,&quot;s_33&quot;]" x1="18.165" y1="203.267" x2="176.09" y2="191.069" vector-effect="non-scaling-stroke"/><line id="s_34" data-route="[&quot;paths&quot;,&quot;s_34&quot;]" x1="19.272" y1="199.564" x2="174.675" y2="190.372" vector-effect="non-scaling-stroke"/><line id="s_35" data-route="[&quot;paths&quot;,&quot;s_35&quot;]" x1="20.192" y1="196.084" x2="173.07" y2="189.901" vector-effect="non-scaling-stroke"/><line id="s_36" data-route="[&quot;paths&quot;,&quot;s_36&quot;]" x1="20.132" y1="193.772" x2="172.239" y2="188.508" vector-effect="non-scaling-stroke"/><line id="s_37" data-route="[&quot;paths&quot;,&quot;s_37&quot;]" x1="19.179" y1="192.525" x2="172.876" y2="185.366" vector-effect="non-scaling-stroke"/><line id="s_38" data-route="[&quot;paths&quot;,&quot;s_38&quot;]" x1="18.262" y1="191.234" x2="174.769" y2="180.726" vector-effect="non-scaling-stroke"/><line id="s_39" data-route="[&quot;paths&quot;,&quot;s_39&quot;]" x1="18.122" y1="189.018" x2="176.988" y2="175.698" vector-effect="non-scaling-stroke"/><line id="s_40" data-route="[&quot;paths&quot;,&quot;s_40&quot;]" x1="18.47" y1="186.218" x2="178.395" y2="171.638" vector-effect="non-scaling-stroke"/><line id="s_41" data-route="[&quot;paths&quot;,&quot;s_41&quot;]" x1="18.267" y1="184.078" x2="178.52" y2="169.106" vector-effect="non-scaling-stroke"/><line id="s_42" data-route="[&quot;paths&quot;,&quot;s_42&quot;]" x1="16.994" y1="183.211" x2="177.695" y2="167.705" vector-effect="non-scaling-stroke"/><line id="s_43" data-route="[&quot;paths&quot;,&quot;s_43&quot;]" x1="14.828" y1="183.409" x2="176.507" y2="166.738" vector-effect="non-scaling-stroke"/><line id="s_44" data-route="[&quot;paths&quot;,&quot;s_44&quot;]" x1="12.872" y1="183.356" x2="175.74" y2="165.269" vector-effect="non-scaling-stroke"/><line id="s_45" data-route="[&quot;paths&quot;,&quot;s_45&quot;]" x1="12.21" y1="181.761" x2="175.731" y2="162.896" vector-effect="non-scaling-stroke"/><line id="s_46" data-route="[&quot;paths&quot;,&quot;s_46&quot;]" x1="12.903" y1="178.553" x2="176.114" y2="160.056" vector-effect="non-scaling-stroke"/><line id="s_47" data-route="[&quot;paths&quot;,&quot;s_47&quot;]" x1="14.493" y1="174.275" x2="176.324" y2="157.422" vector-effect="non-scaling-stroke"/><line id="s_48" data-route="[&quot;paths&quot;,&quot;s_48&quot;]" x1="16.143" y1="169.925" x2="176.111" y2="155.292" vector-effect="non-scaling-stroke"/><line id="s_49" data-route="[&quot;paths&quot;,&quot;s_49&quot;]" x1="16.764" y1="166.8" x2="175.459" y2="153.686" vector-effect="non-scaling-stroke"/><line id="s_50" data-route="[&quot;paths&quot;,&quot;s_50&quot;]" x1="15.43" y1="166.007" x2="174.207" y2="152.795" vector-effect="non-scaling-stroke"/><line id="s_51" data-route="[&quot;paths&quot;,&quot;s_51&quot;]" x1="12.643" y1="166.945" x2="172.501" y2="152.444" vector-effect="non-scaling-stroke"/><line id="s_52" data-route="[&quot;paths&quot;,&quot;s_52&quot;]" x1="10.228" y1="167.44" x2="171.232" y2="151.573" vector-effect="non-scaling-stroke"/><line id="s_53" data-route="[&quot;paths&quot;,&quot;s_53&quot;]" x1="9.605" y1="165.799" x2="171.242" y2="149.178" vector-effect="non-scaling-stroke"/><line id="s_54" data-route="[&quot;paths&quot;,&quot;s_54&quot;]" x1="10.63" y1="162.194" x2="172.563" y2="145.219" vector-effect="non-scaling-stroke"/><line id="s_55" data-route="[&quot;paths&quot;,&quot;s_55&quot;]" x1="12.384" y1="157.72" x2="174.421" y2="140.622" vector-effect="non-scaling-stroke"/><line id="s_56" data-route="[&quot;paths&quot;,&quot;s_56&quot;]" x1="13.748" y1="153.711" x2="175.726" y2="136.683" vector-effect="non-scaling-stroke"/><line id="s_57" data-route="[&quot;paths&quot;,&quot;s_57&quot;]" x1="13.884" y1="151.165" x2="175.633" y2="134.411" vector-effect="non-scaling-stroke"/><line id="s_58" data-route="[&quot;paths&quot;,&quot;s_58&quot;]" x1="13.195" y1="149.603" x2="174.064" y2="133.897" vector-effect="non-scaling-stroke"/><line id="s_59" data-route="[&quot;paths&quot;,&quot;s_59&quot;]" x1="12.546" y1="147.993" x2="172.191" y2="133.745" vector-effect="non-scaling-stroke"/><line id="s_60" data-route="[&quot;paths&quot;,&quot;s_60&quot;]" x1="12.28" y1="145.926" x2="171.543" y2="132.135" vector-effect="non-scaling-stroke"/><line id="s_61" data-route="[&quot;paths&quot;,&quot;s_61&quot;]" x1="11.968" y1="143.914" x2="172.417" y2="128.709" vector-effect="non-scaling-stroke"/><line id="s_62" data-route="[&quot;paths&quot;,&quot;s_62&quot;]" x1="11.428" y1="142.175" x2="173.713" y2="124.781" vector-effect="non-scaling-stroke"/><line id="s_63" data-route="[&quot;paths&quot;,&quot;s_63&quot;]" x1="11.545" y1="139.652" x2="174.499" y2="121.461" vector-effect="non-scaling-stroke"/><line id="s_64" data-route="[&quot;paths&quot;,&quot;s_64&quot;]" x1="12.716" y1="135.873" x2="174.467" y2="119.115" vector-effect="non-scaling-stroke"/><line id="s_65" data-route="[&quot;paths&quot;,&quot;s_65&quot;]" x1="14.144" y1="131.788" x2="173.89" y2="117.42" vector-effect="non-scaling-stroke"/><line id="s_66" data-route="[&quot;paths&quot;,&quot;s_66&quot;]" x1="14.654" y1="128.797" x2="173.258" y2="115.79" vector-effect="non-scaling-stroke"/><line id="s_67" data-route="[&quot;paths&quot;,&quot;s_67&quot;]" x1="13.876" y1="127.341" x2="172.769" y2="113.989" vector-effect="non-scaling-stroke"/><line id="s_68" data-route="[&quot;paths&quot;,&quot;s_68&quot;]" x1="12.406" y1="126.708" x2="172.145" y2="112.35" vector-effect="non-scaling-stroke"/><line id="s_69" data-route="[&quot;paths&quot;,&quot;s_69&quot;]" x1="11.181" y1="125.785" x2="171.148" y2="111.154" vector-effect="non-scaling-stroke"/><line id="s_70" data-route="[&quot;paths&quot;,&quot;s_70&quot;]" x1="11.108" y1="123.488" x2="170.064" y2="110.062" vector-effect="non-scaling-stroke"/><line id="s_71" data-route="[&quot;paths&quot;,&quot;s_71&quot;]" x1="11.896" y1="120.167" x2="169.141" y2="108.779" vector-effect="non-scaling-stroke"/><line id="s_72" data-route="[&quot;paths&quot;,&quot;s_72&quot;]" x1="12.248" y1="117.363" x2="168.443" y2="107.228" vector-effect="non-scaling-stroke"/><line id="s_73" data-route="[&quot;paths&quot;,&quot;s_73&quot;]" x1="11.256" y1="116.162" x2="167.872" y2="105.525" vector-effect="non-scaling-stroke"/><line id="s_74" data-route="[&quot;paths&quot;,&quot;s_74&quot;]" x1="9.187" y1="116.245" x2="167.398" y2="103.706" vector-effect="non-scaling-stroke"/><line id="s_75" data-route="[&quot;paths&quot;,&quot;s_75&quot;]" x1="7.006" y1="116.46" x2="167.177" y2="101.586" vector-effect="non-scaling-stroke"/><line id="s_76" data-route="[&quot;paths&quot;,&quot;s_76&quot;]" x1="5.801" y1="115.513" x2="167.241" y2="99.126" vector-effect="non-scaling-stroke"/><line id="s_77" data-route="[&quot;paths&quot;,&quot;s_77&quot;]" x1="6.384" y1="112.435" x2="167.82" y2="96.052" vector-effect="non-scaling-stroke"/><line id="s_78" data-route="[&quot;paths&quot;,&quot;s_78&quot;]" x1="8.419" y1="107.625" x2="169.242" y2="91.974" vector-effect="non-scaling-stroke"/><line id="s_79" data-route="[&quot;paths&quot;,&quot;s_79&quot;]" x1="10.247" y1="103.063" x2="170.924" y2="87.586" vector-effect="non-scaling-stroke"/><line id="s_80" data-route="[&quot;paths&quot;,&quot;s_80&quot;]" x1="10.414" y1="100.481" x2="171.786" y2="84.175" vector-effect="non-scaling-stroke"/><line id="s_81" data-route="[&quot;paths&quot;,&quot;s_81&quot;]" x1="9.047" y1="99.727" x2="171.201" y2="82.49" vector-effect="non-scaling-stroke"/><line id="s_82" data-route="[&quot;paths&quot;,&quot;s_82&quot;]" x1="7.19" y1="99.556" x2="169.419" y2="82.23" vector-effect="non-scaling-stroke"/><line id="s_83" data-route="[&quot;paths&quot;,&quot;s_83&quot;]" x1="5.885" y1="98.728" x2="167.313" y2="82.355" vector-effect="non-scaling-stroke"/><line id="s_84" data-route="[&quot;paths&quot;,&quot;s_84&quot;]" x1="5.777" y1="96.473" x2="165.668" y2="81.932" vector-effect="non-scaling-stroke"/><line id="s_85" data-route="[&quot;paths&quot;,&quot;s_85&quot;]" x1="6.37" y1="93.384" x2="164.962" y2="80.391" vector-effect="non-scaling-stroke"/><line id="s_86" data-route="[&quot;paths&quot;,&quot;s_86&quot;]" x1="6.52" y1="90.821" x2="165.361" y2="77.531" vector-effect="non-scaling-stroke"/><line id="s_87" data-route="[&quot;paths&quot;,&quot;s_87&quot;]" x1="5.725" y1="89.384" x2="166.4" y2="73.91" vector-effect="non-scaling-stroke"/><line id="s_88" data-route="[&quot;paths&quot;,&quot;s_88&quot;]" x1="4.692" y1="88.233" x2="167.415" y2="70.316" vector-effect="non-scaling-stroke"/><line id="s_89" data-route="[&quot;paths&quot;,&quot;s_89&quot;]" x1="4.219" y1="86.412" x2="168.035" y2="67.195" vector-effect="non-scaling-stroke"/><line id="s_90" data-route="[&quot;paths&quot;,&quot;s_90&quot;]" x1="4.004" y1="84.286" x2="167.688" y2="65.224" vector-effect="non-scaling-stroke"/><line id="s_91" data-route="[&quot;paths&quot;,&quot;s_91&quot;]" x1="3.747" y1="82.209" x2="166.253" y2="64.551" vector-effect="non-scaling-stroke"/><line id="s_92" data-route="[&quot;paths&quot;,&quot;s_92&quot;]" x1="3.711" y1="79.868" x2="164.658" y2="64.069" vector-effect="non-scaling-stroke"/><line id="s_93" data-route="[&quot;paths&quot;,&quot;s_93&quot;]" x1="4.331" y1="76.745" x2="163.97" y2="62.505" vector-effect="non-scaling-stroke"/><line id="s_94" data-route="[&quot;paths&quot;,&quot;s_94&quot;]" x1="5.561" y1="72.896" x2="164.515" y2="59.473" vector-effect="non-scaling-stroke"/><line id="s_95" data-route="[&quot;paths&quot;,&quot;s_95&quot;]" x1="6.87" y1="68.952" x2="165.694" y2="55.683" vector-effect="non-scaling-stroke"/><line id="s_96" data-route="[&quot;paths&quot;,&quot;s_96&quot;]" x1="7.582" y1="65.721" x2="166.54" y2="52.291" vector-effect="non-scaling-stroke"/><line id="s_97" data-route="[&quot;paths&quot;,&quot;s_97&quot;]" x1="7.834" y1="63.037" x2="166.471" y2="49.991" vector-effect="non-scaling-stroke"/><line id="s_98" data-route="[&quot;paths&quot;,&quot;s_98&quot;]" x1="7.951" y1="60.514" x2="165.63" y2="48.61" vector-effect="non-scaling-stroke"/><line id="s_99" data-route="[&quot;paths&quot;,&quot;s_99&quot;]" x1="7.863" y1="58.236" x2="164.749" y2="47.276" vector-effect="non-scaling-stroke"/><line id="s_100" data-route="[&quot;paths&quot;,&quot;s_100&quot;]" x1="7.095" y1="56.766" x2="164.388" y2="45.323" vector-effect="non-scaling-stroke"/><line id="s_101" data-route="[&quot;paths&quot;,&quot;s_101&quot;]" x1="5.257" y1="56.574" x2="164.295" y2="43.05" vector-effect="non-scaling-stroke"/><line id="s_102" data-route="[&quot;paths&quot;,&quot;s_102&quot;]" x1="2.974" y1="56.911" x2="164.133" y2="40.86" vector-effect="non-scaling-stroke"/><line id="s_103" data-route="[&quot;paths&quot;,&quot;s_103&quot;]" x1="1.348" y1="56.466" x2="163.877" y2="38.781" vector-effect="non-scaling-stroke"/><line id="s_104" data-route="[&quot;paths&quot;,&quot;s_104&quot;]" x1="0.958" y1="54.547" x2="163.426" y2="36.935" vector-effect="non-scaling-stroke"/><line id="s_105" data-route="[&quot;paths&quot;,&quot;s_105&quot;]" x1="1.367" y1="51.676" x2="162.457" y2="35.707" vector-effect="non-scaling-stroke"/><line id="s_106" data-route="[&quot;paths&quot;,&quot;s_106&quot;]" x1="1.59" y1="49.027" x2="161.262" y2="34.747" vector-effect="non-scaling-stroke"/><line id="s_107" data-route="[&quot;paths&quot;,&quot;s_107&quot;]" x1="1.061" y1="47.273" x2="160.618" y2="33.131" vector-effect="non-scaling-stroke"/><line id="s_108" data-route="[&quot;paths&quot;,&quot;s_108&quot;]" x1="0.276" y1="45.826" x2="161.005" y2="30.286" vector-effect="non-scaling-stroke"/><line id="s_109" data-route="[&quot;paths&quot;,&quot;s_109&quot;]" x1="0" y1="43.771" x2="162.214" y2="26.462" vector-effect="non-scaling-stroke"/><line id="s_110" data-route="[&quot;paths&quot;,&quot;s_110&quot;]" x1="0.43" y1="40.875" x2="163.492" y2="22.556" vector-effect="non-scaling-stroke"/><line id="s_111" data-route="[&quot;paths&quot;,&quot;s_111&quot;]" x1="1.534" y1="37.176" x2="164.044" y2="19.514" vector-effect="non-scaling-stroke"/><line id="s_112" data-route="[&quot;paths&quot;,&quot;s_112&quot;]" x1="2.938" y1="33.12" x2="163.737" y2="17.496" vector-effect="non-scaling-stroke"/><line id="s_113" data-route="[&quot;paths&quot;,&quot;s_113&quot;]" x1="4.11" y1="29.339" x2="163.027" y2="15.96" vector-effect="non-scaling-stroke"/><line id="s_114" data-route="[&quot;paths&quot;,&quot;s_114&quot;]" x1="4.522" y1="26.465" x2="162.605" y2="14.079" vector-effect="non-scaling-stroke"/><line id="s_115" data-route="[&quot;paths&quot;,&quot;s_115&quot;]" x1="4.017" y1="24.683" x2="162.655" y2="11.635" vector-effect="non-scaling-stroke"/><line id="s_116" data-route="[&quot;paths&quot;,&quot;s_116&quot;]" x1="2.921" y1="23.606" x2="162.606" y2="9.31" vector-effect="non-scaling-stroke"/><line id="s_117" data-route="[&quot;paths&quot;,&quot;s_117&quot;]" x1="1.945" y1="22.385" x2="162.271" y2="7.326" vector-effect="non-scaling-stroke"/><line id="s_118" data-route="[&quot;paths&quot;,&quot;s_118&quot;]" x1="1.724" y1="20.266" x2="161.999" y2="5.267" vector-effect="non-scaling-stroke"/><line id="s_119" data-route="[&quot;paths&quot;,&quot;s_119&quot;]" x1="2.222" y1="17.288" x2="162.094" y2="2.77" vector-effect="non-scaling-stroke"/><line id="s_120" data-route="[&quot;paths&quot;,&quot;s_120&quot;]" x1="2.806" y1="14.21" x2="162.419" y2="0" vector-effect="non-scaling-stroke"/></g></g></svg>